# xmcd
#
# Track frame offsets:
# 150
# 15311
# 28062
# 38409
# 51707
# 66341
# 83130
# 98224
# 112270
# 128634
# 140237
# 154295
#
# Disc length: 2245 seconds
#
# Revision: 1
# Processed by: cddbd v1.5.1PL0 Copyright (c) Steve Scherf et al.
# Submitted via: CedeCatalogueitor 2.6.0.6 http://personales.ya.com/cdcatalogueitor
#
DISCID=a808c30c
DTITLE=La 5ª Estación - Primera Toma
DYEAR=1900
DGENRE=
TTITLE0=Dónde Irán
TTITLE1=No Quiero Perderte
TTITLE2=Ayer
TTITLE3=Sólo Es Un Minuto
TTITLE4=Cinco Estaciones
TTITLE5=Perdición
TTITLE6=Perdiendo El Control
TTITLE7=Nada Será Igual
TTITLE8=Cuando Acaba La Noche
TTITLE9=Cerca De Ti
TTITLE10=Coma
TTITLE11=Todo Se Vuelve Extraño
EXTD=
EXTT0=
EXTT1=
EXTT2=
EXTT3=
EXTT4=
EXTT5=
EXTT6=
EXTT7=
EXTT8=
EXTT9=
EXTT10=
EXTT11=
PLAYORDER=
